<svg width="164" height="47" viewBox="0 0 164 47" fill="none" xmlns="http://www.w3.org/2000/svg">
<path d="M1.85742 20.9749L23.3805 14.729L24.3934 28.2337L21.0172 44.1439L12.1548 45.7476L1.85742 20.9749Z" fill="white"/>
<path fill-rule="evenodd" clip-rule="evenodd" d="M24.1878 24.8307C24.2011 24.7323 24.1994 24.6355 24.1816 24.5405C24.1795 24.5288 24.177 24.5171 24.1743 24.5055L24.1674 24.3364L24.1219 24.347C23.5084 22.9404 19.195 22.5429 14.1908 23.4752C8.97531 24.4467 5.81048 26.9784 6.08605 28.5413L6.0625 28.5469L12.3782 44.3781L12.4246 44.3643C13.1706 45.3598 15.5701 45.3051 18.7921 44.569C22.2403 43.7816 24.8319 42.0851 24.8284 40.6766L24.8411 40.6729L24.1878 24.8307Z" fill="#FF929B"/>
<path fill-rule="evenodd" clip-rule="evenodd" d="M24.7043 15.2068C24.7362 14.9234 24.7193 14.6456 24.6508 14.3755C23.9353 11.5593 17.8528 10.674 11.0647 12.3982C4.27664 14.1224 -0.646262 17.8031 0.0690599 20.6194C0.139248 20.8956 0.261114 21.1535 0.430252 21.3919L8.98074 40.1531C8.98735 40.1821 8.99626 40.211 9.00745 40.2399C9.11396 40.5141 9.38857 40.6631 9.62096 40.5728C9.85326 40.4825 9.95528 40.1872 9.84877 39.913C9.82524 39.8523 9.79347 39.798 9.75581 39.7508L3.0042 23.0801L2.70202 22.8755C5.24587 23.7348 9.30567 23.7014 13.6551 22.5966C17.9292 21.511 21.4638 19.6498 23.3171 17.717L24.3933 28.9747H24.4042C24.4044 28.9901 24.4049 29.0057 24.4059 29.0214C24.4062 29.0283 24.4067 29.0352 24.4072 29.0423C24.4308 29.3355 24.5819 29.5625 24.7446 29.5494C24.9074 29.5364 25.0205 29.2881 24.9969 28.9949C24.9939 28.9559 24.9885 28.918 24.981 28.8816L24.7301 15.1645L24.7043 15.2068Z" fill="#020202"/>
<path d="M13.5028 21.555C19.0471 20.1467 23.0681 17.1404 22.4838 14.8402C21.8995 12.54 16.9313 11.8168 11.387 13.2251C5.84269 14.6334 1.82175 17.6398 2.40602 19.94C2.99028 22.2402 7.95849 22.9633 13.5028 21.555Z" fill="white"/>
<path fill-rule="evenodd" clip-rule="evenodd" d="M7.81549 3.99606C7.79605 3.95392 7.77114 3.90802 7.74044 3.85788C7.17937 2.94147 5.68027 2.83792 4.39211 3.62661C3.16314 4.37904 2.57017 5.67172 3.00544 6.58472L2.9821 6.5964L15.6134 27.4802L15.6272 27.4739C15.6508 27.5397 15.6843 27.6046 15.7277 27.6663C15.9336 27.9583 16.2858 28.0646 16.5144 27.9036C16.7431 27.7424 16.7615 27.3751 16.5556 27.0829C16.55 27.075 16.5444 27.0672 16.5387 27.0596L16.5398 27.0591L5.00311 7.01747L5.8452 6.42797L5.33994 5.92273H4.643C4.93244 5.61486 5.26061 5.29908 5.63816 5.06792C5.89845 4.90857 6.16228 4.80162 6.41297 4.72484L13.3398 16.7857L13.3418 16.7845C13.3505 16.8002 13.3596 16.8158 13.3691 16.8313C13.5555 17.1363 13.8361 17.3044 13.9958 17.2067C14.1554 17.1092 14.1337 16.7828 13.9473 16.4779C13.9413 16.468 13.9352 16.4584 13.929 16.449L13.9292 16.4488L7.86621 3.98593L7.81549 3.99606Z" fill="#040003"/>
<path d="M12.1251 33.2434C12.9622 33.2434 13.6408 32.5648 13.6408 31.7277C13.6408 30.8905 12.9622 30.2119 12.1251 30.2119C11.288 30.2119 10.6094 30.8905 10.6094 31.7277C10.6094 32.5648 11.288 33.2434 12.1251 33.2434Z" fill="#020202"/>
<path d="M13.6408 37.6224C14.4779 37.6224 15.1565 36.9437 15.1565 36.1066C15.1565 35.2695 14.4779 34.5908 13.6408 34.5908C12.8036 34.5908 12.125 35.2695 12.125 36.1066C12.125 36.9437 12.8036 37.6224 13.6408 37.6224Z" fill="#020202"/>
<path d="M15.1564 42.3382C15.9935 42.3382 16.6721 41.6596 16.6721 40.8224C16.6721 39.9853 15.9935 39.3066 15.1564 39.3066C14.3192 39.3066 13.6406 39.9853 13.6406 40.8224C13.6406 41.6596 14.3192 42.3382 15.1564 42.3382Z" fill="#020202"/>
<path d="M19.7032 32.4011C20.5403 32.4011 21.219 31.7225 21.219 30.8853C21.219 30.0482 20.5403 29.3696 19.7032 29.3696C18.8661 29.3696 18.1875 30.0482 18.1875 30.8853C18.1875 31.7225 18.8661 32.4011 19.7032 32.4011Z" fill="#020202"/>
<path d="M18.1876 37.117C19.0248 37.117 19.7034 36.4384 19.7034 35.6012C19.7034 34.7641 19.0248 34.0854 18.1876 34.0854C17.3505 34.0854 16.6719 34.7641 16.6719 35.6012C16.6719 36.4384 17.3505 37.117 18.1876 37.117Z" fill="#020202"/>
<path d="M21.2208 40.6536C22.058 40.6536 22.7366 39.975 22.7366 39.1378C22.7366 38.3007 22.058 37.6221 21.2208 37.6221C20.3837 37.6221 19.7051 38.3007 19.7051 39.1378C19.7051 39.975 20.3837 40.6536 21.2208 40.6536Z" fill="#020202"/>
<path d="M19.8614 6.06195C17.9679 8.23424 15.2554 8.85854 13.8858 8.83918C13.87 7.73076 14.0189 4.79214 15.9123 2.61989C17.8057 0.447624 20.8633 -0.0130605 21.8049 0.000278148C21.9954 1.36694 21.7547 3.88968 19.8614 6.06195Z" fill="#A9CF00"/>
<path fill-rule="evenodd" clip-rule="evenodd" d="M12.2896 44.9732C12.0775 44.8505 11.705 44.6347 11.705 44.2748C11.705 43.8126 11.9124 43.5051 12.0684 43.2735C12.2422 43.0159 12.3524 42.8524 12.0418 42.6748C11.1582 42.6748 10.2734 43.635 10.2734 44.6116C10.2734 44.7141 10.2841 44.8006 10.3042 44.8733C10.2993 44.9205 10.3019 44.9741 10.3126 45.0343C10.5819 46.4223 13.3321 46.64 16.8417 45.959C18.2515 45.6854 19.6569 45.067 20.6442 44.6327C20.727 44.5961 20.8069 44.5609 20.8838 44.5274C20.9973 44.4545 21.103 44.3869 21.2015 44.324C22.1268 43.733 22.4253 43.5423 22.668 42.9915C22.3871 42.9312 22.108 43.0486 21.556 43.2813C20.7531 43.6195 19.3729 44.201 16.5696 44.8324C15.4395 45.0871 14.147 45.2853 13.305 45.2853C13.1115 45.2673 12.9433 45.2316 12.7944 45.1736C12.7048 45.1324 12.6146 45.0999 12.5244 45.0673C12.4744 45.0494 12.4245 45.0313 12.3746 45.0118C12.3559 45.0045 12.3371 44.9973 12.3184 44.9901C12.3092 44.9847 12.2996 44.9791 12.2896 44.9732Z" fill="#050505"/>
<path d="M48.55 14.5C49.0167 14.5 49.3917 14.6417 49.675 14.925C49.9583 15.2083 50.1 15.575 50.1 16.025V30.475C50.1 30.9083 49.95 31.275 49.65 31.575C49.35 31.8583 48.9667 32 48.5 32C48.0833 32 47.725 31.8583 47.425 31.575C47.125 31.275 46.975 30.9083 46.975 30.475V24.65H39V30.475C39 30.9083 38.8417 31.275 38.525 31.575C38.2083 31.8583 37.8417 32 37.425 32C36.975 32 36.6 31.8583 36.3 31.575C36.0167 31.275 35.875 30.9083 35.875 30.475V16.025C35.875 15.5917 36.025 15.2333 36.325 14.95C36.625 14.65 37.0083 14.5 37.475 14.5C37.8917 14.5 38.25 14.65 38.55 14.95C38.85 15.2333 39 15.5917 39 16.025V21.775H46.975V16.025C46.975 15.5917 47.1333 15.2333 47.45 14.95C47.7667 14.65 48.1333 14.5 48.55 14.5ZM64.4188 18.375C64.8521 18.375 65.2104 18.5167 65.4938 18.8C65.7771 19.0833 65.9188 19.45 65.9188 19.9V30.475C65.9188 30.9083 65.7771 31.275 65.4938 31.575C65.2104 31.8583 64.8521 32 64.4188 32C63.9854 32 63.6271 31.8583 63.3438 31.575C63.0771 31.2917 62.9354 30.9333 62.9188 30.5C62.5021 30.9833 61.9354 31.4 61.2188 31.75C60.5188 32.0833 59.7771 32.25 58.9938 32.25C57.8438 32.25 56.8021 31.9583 55.8688 31.375C54.9354 30.775 54.1938 29.95 53.6438 28.9C53.1104 27.85 52.8438 26.6583 52.8438 25.325C52.8438 23.9917 53.1104 22.8 53.6438 21.75C54.1771 20.6833 54.9021 19.8583 55.8188 19.275C56.7521 18.675 57.7771 18.375 58.8938 18.375C59.6938 18.375 60.4438 18.525 61.1438 18.825C61.8438 19.1083 62.4354 19.475 62.9188 19.925V19.9C62.9188 19.4667 63.0604 19.1083 63.3438 18.825C63.6271 18.525 63.9854 18.375 64.4188 18.375ZM59.3688 29.5C60.4521 29.5 61.3354 29.1083 62.0188 28.325C62.7021 27.525 63.0438 26.525 63.0438 25.325C63.0438 24.125 62.7021 23.125 62.0188 22.325C61.3354 21.525 60.4521 21.125 59.3688 21.125C58.3021 21.125 57.4271 21.525 56.7438 22.325C56.0604 23.125 55.7188 24.125 55.7188 25.325C55.7188 26.525 56.0521 27.525 56.7188 28.325C57.4021 29.1083 58.2854 29.5 59.3688 29.5ZM76.0949 18.375C77.2449 18.375 78.2866 18.675 79.2199 19.275C80.1533 19.8583 80.8866 20.675 81.4199 21.725C81.9699 22.775 82.2449 23.9667 82.2449 25.3C82.2449 26.6333 81.9783 27.8333 81.4449 28.9C80.9116 29.95 80.1783 30.775 79.2449 31.375C78.3283 31.9583 77.3116 32.25 76.1949 32.25C75.3949 32.25 74.6366 32.0917 73.9199 31.775C73.2199 31.4417 72.6366 31.0417 72.1699 30.575V35.475C72.1699 35.9083 72.0283 36.2667 71.7449 36.55C71.4616 36.85 71.1033 37 70.6699 37C70.2366 37 69.8783 36.8583 69.5949 36.575C69.3116 36.2917 69.1699 35.925 69.1699 35.475V20.15C69.1699 19.7167 69.3116 19.3583 69.5949 19.075C69.8783 18.775 70.2366 18.625 70.6699 18.625C71.1033 18.625 71.4616 18.775 71.7449 19.075C72.0283 19.3583 72.1699 19.7167 72.1699 20.15V20.25C72.5699 19.75 73.1283 19.3167 73.8449 18.95C74.5616 18.5667 75.3116 18.375 76.0949 18.375ZM75.7199 29.5C76.7866 29.5 77.6616 29.1 78.3449 28.3C79.0283 27.5 79.3699 26.5 79.3699 25.3C79.3699 24.1 79.0283 23.1083 78.3449 22.325C77.6783 21.525 76.8033 21.125 75.7199 21.125C74.6366 21.125 73.7533 21.525 73.0699 22.325C72.3866 23.1083 72.0449 24.1 72.0449 25.3C72.0449 26.5 72.3866 27.5 73.0699 28.3C73.7533 29.1 74.6366 29.5 75.7199 29.5ZM91.6711 18.375C92.8211 18.375 93.8628 18.675 94.7961 19.275C95.7294 19.8583 96.4628 20.675 96.9961 21.725C97.5461 22.775 97.8211 23.9667 97.8211 25.3C97.8211 26.6333 97.5544 27.8333 97.0211 28.9C96.4878 29.95 95.7544 30.775 94.8211 31.375C93.9044 31.9583 92.8878 32.25 91.7711 32.25C90.9711 32.25 90.2128 32.0917 89.4961 31.775C88.7961 31.4417 88.2128 31.0417 87.7461 30.575V35.475C87.7461 35.9083 87.6044 36.2667 87.3211 36.55C87.0378 36.85 86.6794 37 86.2461 37C85.8128 37 85.4544 36.8583 85.1711 36.575C84.8878 36.2917 84.7461 35.925 84.7461 35.475V20.15C84.7461 19.7167 84.8878 19.3583 85.1711 19.075C85.4544 18.775 85.8128 18.625 86.2461 18.625C86.6794 18.625 87.0378 18.775 87.3211 19.075C87.6044 19.3583 87.7461 19.7167 87.7461 20.15V20.25C88.1461 19.75 88.7044 19.3167 89.4211 18.95C90.1378 18.5667 90.8878 18.375 91.6711 18.375ZM91.2961 29.5C92.3628 29.5 93.2378 29.1 93.9211 28.3C94.6044 27.5 94.9461 26.5 94.9461 25.3C94.9461 24.1 94.6044 23.1083 93.9211 22.325C93.2544 21.525 92.3794 21.125 91.2961 21.125C90.2128 21.125 89.3294 21.525 88.6461 22.325C87.9628 23.1083 87.6211 24.1 87.6211 25.3C87.6211 26.5 87.9628 27.5 88.6461 28.3C89.3294 29.1 90.2128 29.5 91.2961 29.5ZM110.247 18.625C110.681 18.625 111.039 18.775 111.322 19.075C111.606 19.3583 111.747 19.7167 111.747 20.15V30.775C111.747 32.9417 111.164 34.5167 109.997 35.5C108.831 36.5 107.272 37 105.322 37C104.756 37 104.172 36.95 103.572 36.85C102.989 36.7667 102.514 36.65 102.147 36.5C101.331 36.15 100.922 35.6667 100.922 35.05C100.922 34.9333 100.947 34.8 100.997 34.65C101.097 34.2833 101.264 34 101.497 33.8C101.747 33.6167 102.014 33.525 102.297 33.525C102.464 33.525 102.622 33.55 102.772 33.6C102.889 33.65 103.089 33.7333 103.372 33.85C103.672 33.9667 103.981 34.0583 104.297 34.125C104.631 34.2083 104.972 34.25 105.322 34.25C106.506 34.25 107.372 33.9917 107.922 33.475C108.489 32.975 108.772 32.1083 108.772 30.875V30.625C107.906 31.7083 106.556 32.25 104.722 32.25C103.856 32.25 103.089 32.05 102.422 31.65C101.756 31.2333 101.239 30.6667 100.872 29.95C100.506 29.2167 100.322 28.3833 100.322 27.45V20.15C100.322 19.7167 100.464 19.3583 100.747 19.075C101.031 18.775 101.389 18.625 101.822 18.625C102.256 18.625 102.614 18.775 102.897 19.075C103.181 19.3583 103.322 19.7167 103.322 20.15V26.55C103.322 27.6 103.547 28.3583 103.997 28.825C104.464 29.275 105.139 29.5 106.022 29.5C106.889 29.5 107.556 29.25 108.022 28.75C108.506 28.2333 108.747 27.5 108.747 26.55V20.15C108.747 19.7167 108.889 19.3583 109.172 19.075C109.456 18.775 109.814 18.625 110.247 18.625ZM133.752 14.5C134.202 14.5 134.569 14.6333 134.852 14.9C135.135 15.1667 135.277 15.5167 135.277 15.95C135.277 16.3833 135.135 16.7333 134.852 17C134.569 17.25 134.202 17.375 133.752 17.375H129.827V30.475C129.827 30.9083 129.669 31.275 129.352 31.575C129.035 31.8583 128.644 32 128.177 32C127.71 32 127.327 31.8583 127.027 31.575C126.727 31.275 126.577 30.9083 126.577 30.475V17.375H122.652C122.202 17.375 121.835 17.2417 121.552 16.975C121.269 16.7083 121.127 16.3583 121.127 15.925C121.127 15.5083 121.269 15.1667 121.552 14.9C121.852 14.6333 122.219 14.5 122.652 14.5H133.752ZM146.648 25C146.632 25.4 146.473 25.725 146.173 25.975C145.873 26.225 145.523 26.35 145.123 26.35H136.873C137.073 27.3333 137.532 28.1083 138.248 28.675C138.965 29.225 139.773 29.5 140.673 29.5C141.357 29.5 141.89 29.4417 142.273 29.325C142.657 29.1917 142.957 29.0583 143.173 28.925C143.407 28.775 143.565 28.675 143.648 28.625C143.948 28.475 144.232 28.4 144.498 28.4C144.848 28.4 145.148 28.525 145.398 28.775C145.648 29.025 145.773 29.3167 145.773 29.65C145.773 30.1 145.54 30.5083 145.073 30.875C144.607 31.2583 143.982 31.5833 143.198 31.85C142.415 32.1167 141.623 32.25 140.823 32.25C139.423 32.25 138.198 31.9583 137.148 31.375C136.115 30.7917 135.315 29.9917 134.748 28.975C134.182 27.9417 133.898 26.7833 133.898 25.5C133.898 24.0667 134.198 22.8083 134.798 21.725C135.398 20.6417 136.19 19.8167 137.173 19.25C138.157 18.6667 139.207 18.375 140.323 18.375C141.423 18.375 142.457 18.675 143.423 19.275C144.407 19.875 145.19 20.6833 145.773 21.7C146.357 22.7167 146.648 23.8167 146.648 25ZM140.323 21.125C138.39 21.125 137.248 22.0333 136.898 23.85H143.448V23.675C143.382 22.975 143.04 22.375 142.423 21.875C141.807 21.375 141.107 21.125 140.323 21.125ZM160.073 18.375C160.506 18.375 160.865 18.5167 161.148 18.8C161.431 19.0833 161.573 19.45 161.573 19.9V30.475C161.573 30.9083 161.431 31.275 161.148 31.575C160.865 31.8583 160.506 32 160.073 32C159.64 32 159.281 31.8583 158.998 31.575C158.731 31.2917 158.59 30.9333 158.573 30.5C158.156 30.9833 157.59 31.4 156.873 31.75C156.173 32.0833 155.431 32.25 154.648 32.25C153.498 32.25 152.456 31.9583 151.523 31.375C150.59 30.775 149.848 29.95 149.298 28.9C148.765 27.85 148.498 26.6583 148.498 25.325C148.498 23.9917 148.765 22.8 149.298 21.75C149.831 20.6833 150.556 19.8583 151.473 19.275C152.406 18.675 153.431 18.375 154.548 18.375C155.348 18.375 156.098 18.525 156.798 18.825C157.498 19.1083 158.09 19.475 158.573 19.925V19.9C158.573 19.4667 158.715 19.1083 158.998 18.825C159.281 18.525 159.64 18.375 160.073 18.375ZM155.023 29.5C156.106 29.5 156.99 29.1083 157.673 28.325C158.356 27.525 158.698 26.525 158.698 25.325C158.698 24.125 158.356 23.125 157.673 22.325C156.99 21.525 156.106 21.125 155.023 21.125C153.956 21.125 153.081 21.525 152.398 22.325C151.715 23.125 151.373 24.125 151.373 25.325C151.373 26.525 151.706 27.525 152.373 28.325C153.056 29.1083 153.94 29.5 155.023 29.5Z" fill="#FF929B"/>
</svg>
